<mxfile host="Electron" modified="2023-09-21T14:51:48.077Z" agent="Mozilla/5.0 (Windows NT 10.0; Win64; x64) AppleWebKit/537.36 (KHTML, like Gecko) draw.io/21.1.2 Chrome/106.0.5249.199 Electron/21.4.3 Safari/537.36" etag="QhKtV-mldlNcK4qhGdVC" version="21.1.2" type="device">
  <diagram name="第 1 页" id="CJSiDe1KcKpOtvmJEV3-">
    <mxGraphModel dx="810" dy="469" grid="1" gridSize="10" guides="1" tooltips="1" connect="1" arrows="1" fold="1" page="1" pageScale="1" pageWidth="827" pageHeight="1169" math="0" shadow="0">
      <root>
        <mxCell id="0" />
        <mxCell id="1" parent="0" />
        <mxCell id="lJlfV9zIICEPaNicW4dT-1" value="帧同步" style="rounded=0;whiteSpace=wrap;html=1;" parent="1" vertex="1">
          <mxGeometry x="180" y="480" width="120" height="60" as="geometry" />
        </mxCell>
        <mxCell id="lJlfV9zIICEPaNicW4dT-2" value="符号同步" style="rounded=0;whiteSpace=wrap;html=1;" parent="1" vertex="1">
          <mxGeometry x="380" y="480" width="120" height="60" as="geometry" />
        </mxCell>
        <mxCell id="lJlfV9zIICEPaNicW4dT-3" value="" style="shape=flexArrow;endArrow=classic;html=1;rounded=0;" parent="1" edge="1">
          <mxGeometry width="50" height="50" relative="1" as="geometry">
            <mxPoint x="110" y="510" as="sourcePoint" />
            <mxPoint x="180" y="510" as="targetPoint" />
          </mxGeometry>
        </mxCell>
        <mxCell id="lJlfV9zIICEPaNicW4dT-4" value="" style="shape=flexArrow;endArrow=classic;html=1;rounded=0;" parent="1" edge="1">
          <mxGeometry width="50" height="50" relative="1" as="geometry">
            <mxPoint x="300" y="509.76" as="sourcePoint" />
            <mxPoint x="380" y="510" as="targetPoint" />
          </mxGeometry>
        </mxCell>
        <mxCell id="lJlfV9zIICEPaNicW4dT-5" value="ushort data_raw[]" style="text;html=1;strokeColor=none;fillColor=none;align=center;verticalAlign=middle;whiteSpace=wrap;rounded=0;" parent="1" vertex="1">
          <mxGeometry x="90" y="460" width="90" height="30" as="geometry" />
        </mxCell>
        <mxCell id="lJlfV9zIICEPaNicW4dT-6" value="ushort data_sync[]" style="text;html=1;strokeColor=none;fillColor=none;align=center;verticalAlign=middle;whiteSpace=wrap;rounded=0;" parent="1" vertex="1">
          <mxGeometry x="290" y="460" width="90" height="30" as="geometry" />
        </mxCell>
        <mxCell id="lJlfV9zIICEPaNicW4dT-7" value="" style="shape=flexArrow;endArrow=classic;html=1;rounded=0;" parent="1" edge="1">
          <mxGeometry width="50" height="50" relative="1" as="geometry">
            <mxPoint x="500" y="509.76" as="sourcePoint" />
            <mxPoint x="570" y="510" as="targetPoint" />
          </mxGeometry>
        </mxCell>
        <mxCell id="lJlfV9zIICEPaNicW4dT-8" value="uchar sync_done" style="text;html=1;strokeColor=none;fillColor=none;align=center;verticalAlign=middle;whiteSpace=wrap;rounded=0;" parent="1" vertex="1">
          <mxGeometry x="500" y="460" width="60" height="30" as="geometry" />
        </mxCell>
        <mxCell id="n6iQiBh0KVaitmY2B5k_-1" value="&lt;font color=&quot;#ffbe4d&quot; style=&quot;font-size: 8px;&quot;&gt;这里给出了符号同步的标志信号，后面的模块需要自己进行数据的加载&lt;/font&gt;" style="text;html=1;strokeColor=none;fillColor=none;align=center;verticalAlign=middle;whiteSpace=wrap;rounded=0;" vertex="1" parent="1">
          <mxGeometry x="460" y="555" width="140" height="30" as="geometry" />
        </mxCell>
      </root>
    </mxGraphModel>
  </diagram>
</mxfile>
